<svg width="148" height="14" viewBox="0 0 148 14" fill="none" xmlns="http://www.w3.org/2000/svg">
<path d="M16.044 12.834L18.492 0.288001H19.77L17.322 12.834H16.044Z" fill="#333333"/>
<path d="M31.5677 0.288001H32.8457L30.3977 12.834H29.0117L24.8357 2.466L22.8197 12.834H21.5417L23.9897 0.288001H25.3577L29.5517 10.638L31.5677 0.288001Z" fill="#333333"/>
<path d="M38.1075 12.96C35.8755 12.96 34.0935 11.682 34.1475 9.45L35.4435 9.216C35.3535 10.944 36.6135 11.808 38.1975 11.808C39.9975 11.808 41.3655 10.71 41.3655 9.234C41.3655 7.794 40.0695 7.272 38.8635 6.732C37.3695 6.066 36.0375 5.4 36.0375 3.636C36.0375 1.638 37.7655 0.144 40.0515 0.144C41.5095 0.144 42.8775 0.756001 43.4355 2.214L42.2655 2.808C41.9235 1.8 40.9875 1.296 39.9255 1.296C38.3955 1.296 37.3155 2.304 37.3155 3.51C37.3155 4.716 38.4315 5.202 39.6915 5.778C41.2755 6.498 42.6615 7.146 42.6615 9.036C42.6615 11.286 40.6455 12.96 38.1075 12.96Z" fill="#333333"/>
<path d="M48.0038 12.834L50.1998 1.476H45.8618L46.0957 0.288001H56.0858L55.8518 1.476H51.4958L49.2818 12.834H48.0038Z" fill="#333333"/>
<path d="M62.93 12.834L62.372 9.468H57.206L55.334 12.834H53.84L60.968 0.288001H62.012L64.28 12.834H62.93ZM57.8 8.37H62.174L61.166 2.304L57.8 8.37Z" fill="#333333"/>
<path d="M77.1305 0.288001H78.4085L75.9605 12.834H74.5745L70.3985 2.466L68.3825 12.834H67.1045L69.5526 0.288001H70.9205L75.1145 10.638L77.1305 0.288001Z" fill="#333333"/>
<path d="M83.0944 12.834L85.2904 1.476H80.9524L81.1864 0.288001H91.1764L90.9424 1.476H86.5864L84.3724 12.834H83.0944Z" fill="#333333"/>
<path d="M103.268 0.288001H106.49V12.834H104.24V3.456L101.126 11.736H98.948L95.834 3.456V12.834H93.584V0.288001H96.806L100.028 9.126L103.268 0.288001Z" fill="black"/>
<path d="M115.162 13.104C111.598 13.104 109.168 10.494 109.168 6.57C109.168 2.628 111.598 0.0180008 115.162 0.0180008C118.744 0.0180008 121.156 2.628 121.156 6.57C121.156 10.494 118.726 13.104 115.162 13.104ZM115.162 10.962C117.448 10.962 118.906 9.27 118.906 6.57C118.906 3.852 117.448 2.16 115.162 2.16C112.876 2.16 111.418 3.834 111.418 6.57C111.418 9.288 112.876 10.962 115.162 10.962Z" fill="black"/>
<path d="M129.065 13.104C125.357 13.104 122.981 10.566 122.981 6.552C122.981 2.538 125.357 0 129.065 0C131.711 0 133.709 1.278 134.627 3.672L132.557 4.482C131.999 2.916 130.775 2.142 129.065 2.142C126.635 2.142 125.231 3.726 125.231 6.534C125.231 9.36 126.653 10.962 129.065 10.962C130.793 10.962 132.017 10.152 132.557 8.568L134.663 9.36C133.763 11.79 131.747 13.104 129.065 13.104Z" fill="black"/>
<path d="M148.004 12.834H145.394L141.686 6.588L139.292 9.018V12.834H137.042V0.288001H139.292V6.192L144.926 0.288001H147.878L143.216 5.04L148.004 12.834Z" fill="black"/>
<path d="M6 1.334C6 1.05786 6.22386 0.834001 6.5 0.834001H14.5C14.7761 0.834001 15 1.05786 15 1.334C15 1.61014 14.7761 1.834 14.5 1.834H6.5C6.22386 1.834 6 1.61014 6 1.334Z" fill="#333333"/>
<path d="M4 11.334C4 11.0579 4.22386 10.834 4.5 10.834H12.5C12.7761 10.834 13 11.0579 13 11.334C13 11.6101 12.7761 11.834 12.5 11.834H4.5C4.22386 11.834 4 11.6101 4 11.334Z" fill="#333333"/>
<path d="M0 6.334C0 6.05786 0.223858 5.834 0.5 5.834H13.5C13.7761 5.834 14 6.05786 14 6.334C14 6.61014 13.7761 6.834 13.5 6.834H0.5C0.223857 6.834 0 6.61014 0 6.334Z" fill="#333333"/>
</svg>
